<svg width="390" height="107" viewBox="0 0 390 107" fill="none" xmlns="http://www.w3.org/2000/svg">
<path d="M14.5227 92L1.20455 45.4545H11.9545L19.6591 77.7955H20.0455L28.5455 45.4545H37.75L46.2273 77.8636H46.6364L54.3409 45.4545H65.0909L51.7727 92H42.1818L33.3182 61.5682H32.9545L24.1136 92H14.5227ZM78.2789 45.4545V92H68.438V45.4545H78.2789ZM84.4555 92V45.4545H94.2964V65.9773H94.91L111.66 45.4545H123.455L106.183 66.2955L123.66 92H111.887L99.1373 72.8636L94.2964 78.7727V92H84.4555ZM136.501 45.4545V92H126.66V45.4545H136.501ZM181.269 60H176.996C176.678 58.4091 176.102 56.9394 175.269 55.5909C174.451 54.2273 173.42 53.0379 172.178 52.0227C170.936 51.0076 169.526 50.2197 167.951 49.6591C166.375 49.0985 164.67 48.8182 162.837 48.8182C159.898 48.8182 157.216 49.5833 154.792 51.1136C152.383 52.6439 150.451 54.8939 148.996 57.8636C147.557 60.8182 146.837 64.4394 146.837 68.7273C146.837 73.0455 147.557 76.6818 148.996 79.6364C150.451 82.5909 152.383 84.8333 154.792 86.3636C157.216 87.8788 159.898 88.6364 162.837 88.6364C164.67 88.6364 166.375 88.3561 167.951 87.7955C169.526 87.2348 170.936 86.4545 172.178 85.4545C173.42 84.4394 174.451 83.25 175.269 81.8864C176.102 80.5227 176.678 79.0455 176.996 77.4545H181.269C180.89 79.5909 180.178 81.5833 179.133 83.4318C178.102 85.2652 176.784 86.8712 175.178 88.25C173.587 89.6288 171.754 90.7045 169.678 91.4773C167.602 92.25 165.322 92.6364 162.837 92.6364C158.928 92.6364 155.458 91.6591 152.428 89.7045C149.398 87.7348 147.019 84.9621 145.292 81.3864C143.579 77.8106 142.723 73.5909 142.723 68.7273C142.723 63.8636 143.579 59.6439 145.292 56.0682C147.019 52.4924 149.398 49.7273 152.428 47.7727C155.458 45.803 158.928 44.8182 162.837 44.8182C165.322 44.8182 167.602 45.2045 169.678 45.9773C171.754 46.7348 173.587 47.8106 175.178 49.2045C176.784 50.5833 178.102 52.1894 179.133 54.0227C180.178 55.8561 180.89 57.8485 181.269 60ZM184.852 92V45.4545H189.102V88.1818H211.284V92H184.852ZM245.475 45.4545H249.725V76.2727C249.725 79.4394 248.982 82.2727 247.497 84.7727C246.012 87.2576 243.944 89.2197 241.293 90.6591C238.656 92.0833 235.588 92.7955 232.088 92.7955C228.603 92.7955 225.535 92.0758 222.884 90.6364C220.232 89.197 218.164 87.2348 216.679 84.75C215.194 82.2652 214.452 79.4394 214.452 76.2727V45.4545H218.702V75.9773C218.702 78.447 219.255 80.6515 220.361 82.5909C221.467 84.5152 223.02 86.0303 225.02 87.1364C227.035 88.2424 229.391 88.7955 232.088 88.7955C234.785 88.7955 237.141 88.2424 239.156 87.1364C241.172 86.0303 242.725 84.5152 243.815 82.5909C244.922 80.6515 245.475 78.447 245.475 75.9773V45.4545ZM280.95 57.0909C280.692 54.5 279.548 52.4394 277.518 50.9091C275.487 49.3788 272.934 48.6136 269.859 48.6136C267.692 48.6136 265.783 48.9848 264.131 49.7273C262.495 50.4697 261.207 51.5 260.268 52.8182C259.343 54.1212 258.881 55.6061 258.881 57.2727C258.881 58.5 259.147 59.5758 259.677 60.5C260.207 61.4242 260.919 62.2197 261.813 62.8864C262.722 63.5379 263.722 64.0985 264.813 64.5682C265.919 65.0379 267.033 65.4318 268.154 65.75L273.063 67.1591C274.548 67.5682 276.033 68.0909 277.518 68.7273C279.003 69.3636 280.359 70.1667 281.586 71.1364C282.828 72.0909 283.821 73.2652 284.563 74.6591C285.321 76.0379 285.7 77.697 285.7 79.6364C285.7 82.1212 285.056 84.3561 283.768 86.3409C282.48 88.3258 280.631 89.9015 278.222 91.0682C275.813 92.2197 272.927 92.7955 269.563 92.7955C266.397 92.7955 263.647 92.2727 261.313 91.2273C258.98 90.1667 257.147 88.7045 255.813 86.8409C254.48 84.9773 253.73 82.8182 253.563 80.3636H257.927C258.078 82.197 258.684 83.75 259.745 85.0227C260.806 86.2955 262.184 87.2652 263.881 87.9318C265.578 88.5833 267.472 88.9091 269.563 88.9091C271.881 88.9091 273.942 88.5227 275.745 87.75C277.563 86.9621 278.987 85.8712 280.018 84.4773C281.063 83.0682 281.586 81.4318 281.586 79.5682C281.586 77.9924 281.177 76.6742 280.359 75.6136C279.54 74.5379 278.397 73.6364 276.927 72.9091C275.472 72.1818 273.783 71.5379 271.859 70.9773L266.29 69.3409C262.639 68.25 259.806 66.7424 257.79 64.8182C255.775 62.8939 254.768 60.4394 254.768 57.4545C254.768 54.9545 255.434 52.7576 256.768 50.8636C258.116 48.9545 259.934 47.4697 262.222 46.4091C264.525 45.3333 267.109 44.7955 269.972 44.7955C272.866 44.7955 275.427 45.3258 277.654 46.3864C279.881 47.447 281.647 48.9091 282.95 50.7727C284.268 52.6212 284.972 54.7273 285.063 57.0909H280.95ZM286.709 49.2727V45.4545H320.459V49.2727H305.709V92H301.459V49.2727H286.709ZM323.627 92V45.4545H350.627V49.2727H327.877V66.7955H349.195V70.6136H327.877V88.1818H351.081V92H323.627ZM355.227 92V45.4545H370.25C373.553 45.4545 376.31 46.053 378.522 47.25C380.75 48.4318 382.424 50.0758 383.545 52.1818C384.681 54.2727 385.25 56.6742 385.25 59.3864C385.25 62.0985 384.681 64.4924 383.545 66.5682C382.424 68.6439 380.757 70.2652 378.545 71.4318C376.333 72.5985 373.59 73.1818 370.318 73.1818H357.522V69.2955H370.204C372.628 69.2955 374.643 68.8939 376.25 68.0909C377.871 67.2879 379.075 66.1439 379.863 64.6591C380.666 63.1742 381.068 61.4167 381.068 59.3864C381.068 57.3561 380.666 55.5833 379.863 54.0682C379.06 52.5379 377.848 51.3561 376.227 50.5227C374.621 49.6894 372.59 49.2727 370.136 49.2727H359.477V92H355.227ZM375.75 71L387.204 92H382.295L370.954 71H375.75Z" fill="black"/>
<circle cx="32" cy="15" r="15" fill="black"/>
<circle cx="162" cy="15" r="13" stroke="black" stroke-width="4"/>
<rect x="42" y="13" width="106" height="4" fill="black"/>
</svg>
